<?xml version="1.0" encoding="UTF-8"?>
<svg id="Calque_2" data-name="Calque 2" xmlns="http://www.w3.org/2000/svg" xmlns:xlink="http://www.w3.org/1999/xlink" viewBox="0 0 3872.97 3872.97">
  <defs>
    <style>
      .cls-1 {
        fill: url(#Dégradé_sans_nom_21);
      }

      .cls-1, .cls-2, .cls-3 {
        fill-rule: evenodd;
        stroke-width: 0px;
      }

      .cls-2 {
        fill: url(#Dégradé_sans_nom_4);
      }

      .cls-3 {
        fill: url(#Dégradé_sans_nom_25);
      }
    </style>
    <linearGradient id="Dégradé_sans_nom_21" data-name="Dégradé sans nom 21" x1="0" y1="1936.49" x2="3872.97" y2="1936.49" gradientUnits="userSpaceOnUse">
      <stop offset="0" stop-color="#ffc107"/>
      <stop offset=".31" stop-color="#ffc606"/>
      <stop offset=".71" stop-color="#ffd704"/>
      <stop offset="1" stop-color="#ffe802"/>
    </linearGradient>
    <linearGradient id="Dégradé_sans_nom_25" data-name="Dégradé sans nom 25" x1="311.91" y1="1936.49" x2="3561.06" y2="1936.49" gradientUnits="userSpaceOnUse">
      <stop offset="1" stop-color="#2a0061"/>
      <stop offset="1" stop-color="#2d2ba6"/>
    </linearGradient>
    <linearGradient id="Dégradé_sans_nom_4" data-name="Dégradé sans nom 4" x1="-1324.08" y1="1936.48" x2="5197.05" y2="1936.48" gradientUnits="userSpaceOnUse">
      <stop offset="0" stop-color="#ffc107"/>
      <stop offset="1" stop-color="#ffe802"/>
    </linearGradient>
  </defs>
  <g id="Layer_1" data-name="Layer 1">
    <g>
      <path class="cls-1" d="m859.64,0h2153.69c472.8,0,859.65,386.84,859.65,859.64v2153.69c0,472.8-386.85,859.65-859.65,859.65H859.64C386.84,3872.97,0,3486.12,0,3013.33V859.64C0,386.84,386.84,0,859.64,0Z"/>
      <path class="cls-3" d="m1033.09,311.91h1806.79c396.66,0,721.18,324.52,721.18,721.17v1806.79c0,396.66-324.52,721.18-721.18,721.18h-1806.79c-396.65,0-721.17-324.52-721.17-721.18v-1806.79c0-396.65,324.52-721.17,721.17-721.17Z"/>
      <path class="cls-2" d="m2254.82,3175.43h-678.33c-32.07,0-58.08-25.98-58.08-58.07v-1416.81c0-32.07,26.01-58.07,58.08-58.07h678.29c32.09,0,58.09,26,58.09,58.07v1416.81c0,32.09-26,58.07-58.05,58.07h0Zm645.46-1239.05c-9.61,0-19.27-2.37-28.01-7.2l-160.05-88.12-160.02,88.12c-19.68,10.86-43.93,9.34-62.13-3.89-18.22-13.24-27.15-35.79-22.93-57.92l34.33-179.43-133.22-124.96c-16.41-15.4-22.46-38.91-15.52-60.3,6.95-21.41,25.65-36.88,47.99-39.68l181.25-22.79,77.69-165.32c9.57-20.37,30.04-33.38,52.54-33.38s43,13.01,52.56,33.38l77.71,165.35,181.25,22.79c22.32,2.8,41.03,18.26,47.99,39.68,6.97,21.41.93,44.9-15.52,60.29l-133.22,124.96,34.33,179.44c4.22,22.11-4.69,44.67-22.93,57.92-10.07,7.34-22.04,11.07-34.08,11.07h0Zm-1927.56-242.19c9.61,0,19.24-2.37,27.99-7.19l160.02-88.12,160.02,88.12c19.72,10.84,43.94,9.35,62.15-3.9,18.21-13.25,27.14-35.79,22.91-57.92l-34.34-179.43,133.26-124.96c16.41-15.41,22.47-38.91,15.5-60.32-6.95-21.39-25.67-36.86-47.99-39.66l-181.26-22.79-77.68-165.35c-9.58-20.36-30.07-33.37-52.58-33.37h0c-22.51,0-42.97,13.01-52.55,33.37l-77.69,165.35-181.25,22.79c-22.34,2.8-41.03,18.24-47.99,39.66-6.95,21.41-.91,44.91,15.5,60.32l133.25,124.96-34.34,179.43c-4.24,22.12,4.7,44.69,22.91,57.92,10.12,7.37,22.09,11.09,34.13,11.09h0Zm740.11-256.2c-12.04,0-24.01-3.72-34.14-11.09-18.2-13.23-27.14-35.79-22.91-57.92l37.52-196.02-145.58-136.53c-16.42-15.4-22.47-38.91-15.51-60.32,6.96-21.41,25.65-36.87,48-39.66l198.01-24.88,84.88-180.66c9.57-20.37,30.04-33.38,52.55-33.38h0c22.51,0,42.99,13.01,52.55,33.38l84.86,180.63,198.03,24.89c22.32,2.8,41.03,18.27,47.99,39.65,6.95,21.42.91,44.9-15.52,60.33l-145.58,136.53,37.51,196.02c4.22,22.12-4.69,44.67-22.93,57.91-18.18,13.23-42.41,14.73-62.11,3.89l-174.84-96.25-174.83,96.25c-8.72,4.85-18.36,7.22-27.95,7.22h0Zm-236.97,1737.41h-577.68c-32.08,0-58.08-25.98-58.08-58.07v-1083.11c0-32.09,26-58.09,58.08-58.09h562.15v1141.22c0,21.14,5.65,40.97,15.53,58.05h0Zm1457.25,0h-577.69c9.87-17.08,15.54-36.92,15.54-58.05v-933.34h562.19c32.09,0,58.07,25.98,58.07,58.05v875.27c-.02,32.09-26.02,58.07-58.11,58.07h0Zm-1000.56-523.07l1.04-.02h84.1c16.05,0,29.04-12.98,29.04-29.04s-12.98-29.04-29.04-29.04h-56.12v-399.67c0-16.05-12.98-29.04-29.03-29.04-8.45,0-16.04,3.6-21.34,9.34l-118.13,118.12c-11.35,11.35-11.35,29.71,0,41.03,5.49,5.5,12.77,8.51,20.55,8.51s15.03-3.03,20.52-8.51l69.38-69.38v329.6h-56.13c-16.05,0-29.03,13-29.03,29.04s12.98,29.04,29.03,29.04h84.12l1.04.02Z"/>
    </g>
  </g>
</svg>