<?xml version="1.0" encoding="UTF-8"?>
<svg id="Calque_2" data-name="Calque 2" xmlns="http://www.w3.org/2000/svg" xmlns:xlink="http://www.w3.org/1999/xlink" viewBox="0 0 3872.97 3872.97">
  <defs>
    <style>
      .cls-1 {
        fill: url(#Dégradé_sans_nom_21-2);
      }

      .cls-1, .cls-2, .cls-3 {
        fill-rule: evenodd;
        stroke-width: 0px;
      }

      .cls-2 {
        fill: url(#Dégradé_sans_nom_21);
      }

      .cls-3 {
        fill: url(#Dégradé_sans_nom_25);
      }
    </style>
    <linearGradient id="Dégradé_sans_nom_21" data-name="Dégradé sans nom 21" x1="0" y1="1936.49" x2="3872.97" y2="1936.49" gradientUnits="userSpaceOnUse">
      <stop offset="0" stop-color="#ffc107"/>
      <stop offset=".31" stop-color="#ffc606"/>
      <stop offset=".71" stop-color="#ffd704"/>
      <stop offset="1" stop-color="#ffe802"/>
    </linearGradient>
    <linearGradient id="Dégradé_sans_nom_25" data-name="Dégradé sans nom 25" x1="311.91" y1="1936.49" x2="3561.06" y2="1936.49" gradientUnits="userSpaceOnUse">
      <stop offset="1" stop-color="#2a0061"/>
      <stop offset="1" stop-color="#2d2ba6"/>
    </linearGradient>
    <linearGradient id="Dégradé_sans_nom_21-2" data-name="Dégradé sans nom 21" x1="697.13" y1="1936.49" x2="3175.83" y2="1936.49" xlink:href="#Dégradé_sans_nom_21"/>
  </defs>
  <g id="Master_Layer_1" data-name="Master Layer 1">
    <g>
      <path class="cls-2" d="m859.64,0h2153.69c472.8,0,859.65,386.84,859.65,859.64v2153.69c0,472.8-386.85,859.65-859.65,859.65H859.64C386.84,3872.97,0,3486.12,0,3013.33V859.64C0,386.84,386.84,0,859.64,0Z"/>
      <path class="cls-3" d="m1033.09,311.91h1806.79c396.66,0,721.18,324.52,721.18,721.17v1806.79c0,396.66-324.52,721.18-721.18,721.18h-1806.79c-396.65,0-721.17-324.52-721.17-721.18v-1806.79c0-396.65,324.52-721.17,721.17-721.17Z"/>
    </g>
    <path class="cls-1" d="m2510.06,2573.41c-19.03,0-34.37-15.34-34.37-34.39v-564.26l-102.95,70.62c-15.78,10.83-37.05,6.74-47.71-9-10.64-15.78-6.74-37.05,9.02-47.69l156.76-107.46c10.44-7.17,24.15-7.98,35.4-2.05,11.27,5.94,18.44,17.6,18.44,30.49v629.34c-.2,19.05-15.76,34.39-34.59,34.39h0Zm265.86-1083.09h-162.08c-19.05,0-34.39-15.36-34.39-34.38v-289.81c0-19.03,15.35-34.38,34.39-34.38h162.08c19.03,0,34.39,15.36,34.39,34.38s-15.37,34.38-34.39,34.38h-127.71v76.14h127.71c19.03,0,34.39,15.35,34.39,34.39s-15.37,34.37-34.39,34.37h-127.71v76.14h127.71c19.03,0,34.39,15.35,34.39,34.38s-15.37,34.38-34.39,34.38h0Zm-1606.62,0c-58.54,0-106.42-47.69-106.42-106.42,0-19.04,15.35-34.38,34.38-34.38s34.38,15.35,34.38,34.38c0,20.66,16.78,37.46,37.46,37.46s37.45-16.79,37.45-37.46-16.77-37.46-37.45-37.46c-58.54,0-106.42-47.69-106.42-106.42s47.69-106.42,106.42-106.42,106.23,47.69,106.23,106.42c0,19.04-15.36,34.38-34.39,34.38s-34.38-15.35-34.38-34.38c0-20.66-16.78-37.46-37.46-37.46s-37.45,16.79-37.45,37.46,16.78,37.46,37.45,37.46c58.54,0,106.23,47.68,106.23,106.22.2,58.94-47.48,106.63-106.02,106.63h0Zm1081.45,0c-19.03,0-34.37-15.36-34.37-34.38v-288.37c0-19.04,15.35-34.39,34.37-34.39h89.04c62.01,0,112.56,50.56,112.56,112.57,0,45.32-26.99,84.5-65.72,102.33l38.51,94.77c7.17,17.6-1.24,37.66-18.83,44.83-4.1,1.84-8.61,2.66-12.9,2.66-13.51,0-26.4-8.18-31.93-21.49l-44.89-110.52h-31.44v97.63c0,19.03-15.34,34.38-34.39,34.38h0Zm34.39-200.78h52.07c1.46-.11,2.91-.13,4.33-.04,23.34-.93,42.04-20.2,42.04-43.76s-19.66-43.79-43.79-43.79h-54.65v87.59h0Zm-343.43,200.78c-81.47,0-147.57-66.32-147.57-147.57v-62.02c0-81.46,66.32-147.57,147.57-147.57s147.56,66.12,147.56,147.57v62.02c0,81.25-66.11,147.57-147.56,147.57h0Zm0-288.37c-43.39,0-78.8,35.4-78.8,78.79v62.02c0,43.39,35.41,78.79,78.8,78.79s78.8-35.4,78.8-78.79v-62.02c0-43.39-35.2-78.79-78.8-78.79h0Zm-391.53,288.37c-81.46,0-147.57-66.32-147.57-147.57v-62.02c0-81.46,66.32-147.57,147.57-147.57,40.52,0,79.82,16.99,107.66,46.67,12.89,13.92,12.28,35.62-1.64,48.51-13.92,13.1-35.61,12.28-48.51-1.64-15.15-16.17-35.61-24.97-57.51-24.97-43.39,0-78.8,35.4-78.8,78.8v62.01c0,43.39,35.41,78.8,78.8,78.8,21.91,0,42.36-8.81,57.51-24.97,12.89-13.92,34.8-14.54,48.51-1.64,13.92,12.9,14.54,34.8,1.64,48.52-27.84,30.08-67.13,47.07-107.66,47.07h0Zm1445.56,1393.98c99.26,0,180.09-80.84,180.09-180.33v-959.47c0-92.76-70.58-169.43-160.86-179.07v-407.3c0-93.52-76.14-169.46-169.45-169.46h-1817.65c-93.53,0-169.46,76.14-169.46,169.46v407.28c-90.55,9.52-161.28,86.25-161.28,179.1v959.68c0,99.26,81.04,180.11,180.31,180.11h2118.29ZM877.44,1633.17c-61.4,0-111.34,49.94-111.34,111.34v959.47c0,61.4,49.94,111.56,111.34,111.56h2118.29c61.4,0,111.34-49.94,111.34-111.54v-959.48c0-61.4-49.94-111.34-111.34-111.34H877.44Zm2067.53,1054.66c19.03,0,34.39-15.56,34.59-34.39v-858.16c0-19.03-15.34-34.38-34.39-34.38h-1008.58s-.23,0-.23,0h-1008.17c-19.04,0-34.38,15.36-34.38,34.39v858.16c0,19.03,15.35,34.39,34.38,34.39h2016.78Zm-1982.39-68.77v-789.41h939.61v789.41h-939.61Zm1008.39,0h939.82v-789.41h-939.82v789.41h0ZM927.18,1564.41h2018.81v-406.27c0-55.45-45.23-100.69-100.7-100.69h-1817.43c-55.45,0-100.69,45.23-100.69,100.69v406.27h0Zm505.1,1009c-124.83,0-226.35-101.51-226.35-226.16v-245.59c0-124.64,101.52-226.16,226.35-226.16s226.36,101.53,226.36,226.16v245.59c0,124.66-101.51,226.16-226.36,226.16h0Zm0-629.35c86.98,0,157.59,70.61,157.4,157.39v245.61c0,86.97-70.61,157.59-157.4,157.59s-157.39-70.82-157.39-157.59v-245.61c0-86.77,70.61-157.39,157.39-157.39Z"/>
  </g>
</svg>